<?xml version="1.0" encoding="utf-8"?>
<!-- Generator: Adobe Illustrator 28.0.0, SVG Export Plug-In . SVG Version: 6.00 Build 0)  -->
<svg version="1.1" id="Layer_1" xmlns="http://www.w3.org/2000/svg" xmlns:xlink="http://www.w3.org/1999/xlink" x="0px" y="0px"
	 viewBox="0 0 792 612" style="enable-background:new 0 0 792 612;" xml:space="preserve">
<style type="text/css">
	.st0{fill:#253E56;}
</style>
<g>
	<polygon class="st0" points="461.4,211.9 412.3,211.9 376.3,281 317.6,281 352.6,211.9 268.2,211.9 199.9,346.5 216.1,378.5 
		268.2,378.5 296.9,321.9 356.1,321.9 327.8,378.5 412.3,378.5 479.1,246.8 	"/>
	<polygon class="st0" points="180.5,346 248.5,211.9 132.9,211.9 148.5,242.6 79.5,378.5 197,378.5 180.5,346 	"/>
	<polygon class="st0" points="699.6,237.4 712.9,211.9 480.8,211.9 499.5,249 463.6,321.9 573.1,321.9 556.2,353 446.6,353 
		433.3,378.5 628,378.5 676.9,281 567.4,281 590,237.4 	"/>
</g>
<g>
	<path class="st0" d="M121.7,394.1l0,26.7l-5.1,0l0-26.7L121.7,394.1z"/>
	<path class="st0" d="M147.3,411.2l5.1,0l0,0.9c0,3.7-0.7,6.1-2,7.2c-1.4,1.1-4.4,1.6-9,1.6c-5.3,0-8.5-0.9-9.7-2.6
		c-1.2-1.7-1.8-6.3-1.8-13.8c0-4.4,0.8-7.3,2.5-8.7c1.6-1.4,5.1-2.1,10.3-2.1c3.8,0,6.3,0.6,7.6,1.7c1.3,1.1,1.9,3.4,1.9,6.8l0,0.6
		l-5.1,0v-0.7c0-1.7-0.3-2.9-1-3.3c-0.7-0.5-2.2-0.7-4.5-0.7c-3.1,0-5,0.4-5.7,1.1c-0.6,0.8-0.9,3-1,6.8c0,5.1,0.3,8.1,0.8,9.1
		s2.4,1.4,5.5,1.4c2.5,0,4.1-0.3,4.9-0.8c0.7-0.5,1.1-1.7,1.1-3.4L147.3,411.2z"/>
	<path class="st0" d="M164.5,398.4l0,6.9l12.5,0l0,3.7l-12.5,0l0,7.5l13.3,0l0,4.3l-18.4,0l0-26.7l18.2,0l0,4.3L164.5,398.4z"/>
	<path class="st0" d="M208.5,394.1l0,26.7l-5.1,0l0-11.5l-12.5,0l0,11.5l-5.1,0l0-26.7l5.1,0l0,10.9l12.5,0l0-10.9L208.5,394.1z"/>
	<path class="st0" d="M228.7,393.9c4.8,0,8,0.8,9.4,2.4c1.4,1.6,2.1,5.2,2.1,10.8c0,6.1-0.7,10-2.1,11.5c-1.4,1.6-4.8,2.4-10.2,2.4
		c-4.8,0-8-0.8-9.4-2.4c-1.4-1.6-2.1-5-2.1-10.4c0-6.4,0.7-10.3,2.1-12C219.8,394.7,223.3,393.9,228.7,393.9z M228.3,398.2
		c-3.4,0-5.4,0.4-6,1.3c-0.6,0.9-0.9,3.9-0.9,9.1c0,3.8,0.3,6.1,1,6.9c0.7,0.8,2.6,1.2,5.9,1.2c3.1,0,5-0.4,5.6-1.3
		c0.6-0.9,0.9-3.5,0.9-8c0-4.5-0.3-7.1-0.9-7.9C233.5,398.6,231.6,398.2,228.3,398.2z"/>
	<path class="st0" d="M264.4,411.3l5.1,0l0,0.9c0,3.7-0.7,6.1-2,7.2c-1.4,1.1-4.4,1.6-9,1.6c-5.3,0-8.5-0.9-9.7-2.6
		c-1.2-1.7-1.8-6.3-1.8-13.8c0-4.4,0.8-7.3,2.5-8.7c1.6-1.4,5.1-2.1,10.3-2.1c3.8,0,6.3,0.6,7.6,1.7c1.3,1.1,1.9,3.4,1.9,6.8l0,0.6
		l-5.1,0v-0.7c0-1.7-0.3-2.9-1-3.3c-0.7-0.5-2.2-0.7-4.5-0.7c-3.1,0-5,0.4-5.7,1.1c-0.6,0.8-0.9,3-1,6.8c0,5.1,0.3,8.1,0.8,9.1
		c0.6,0.9,2.4,1.4,5.5,1.4c2.5,0,4.1-0.3,4.9-0.8c0.7-0.5,1.1-1.7,1.1-3.4L264.4,411.3z"/>
	<path class="st0" d="M282.2,394.2l0,10.9l2.4,0l8.9-10.9l6.3,0l-10.8,12.9l11.9,13.7l-6.5,0l-9.8-11.5l-2.4,0l0,11.5l-5.1,0l0-26.7
		L282.2,394.2z"/>
	<path class="st0" d="M311.8,398.4l0,6.9l12.5,0l0,3.7l-12.5,0l0,7.5l13.3,0l0,4.3l-18.4,0l0-26.7l18.2,0l0,4.3L311.8,398.4z"/>
	<path class="st0" d="M355.4,394.2l-9.9,16.5l0,10.2l-5.1,0l0-10.2l-9.6-16.5l5.9,0l4,7c0.2,0.4,0.6,1.1,1.1,2.2l0.6,1.1l0.5,1.1
		h0.1l0.6-1.1l0.6-1.1c0.5-1,0.9-1.7,1.2-2.2l4.1-7L355.4,394.2z"/>
	<path class="st0" d="M381.8,402l-4.9,0c0-0.2,0-0.4,0-0.5c-0.1-1.5-0.4-2.4-1-2.8c-0.5-0.4-1.8-0.6-3.9-0.6c-2.4,0-4,0.2-4.7,0.7
		c-0.7,0.4-1.1,1.4-1.1,2.8c0,1.7,0.3,2.7,0.9,3c0.6,0.3,2.6,0.6,5.9,0.8c4,0.2,6.5,0.8,7.7,1.7c1.2,0.9,1.7,2.8,1.7,5.7
		c0,3.5-0.7,5.8-2.1,6.9c-1.4,1-4.4,1.6-9,1.5c-4.2,0-7-0.5-8.3-1.5c-1.4-1-2.1-3.1-2.1-6.2l0-1l4.9,0l0,0.6c0,1.9,0.3,3,1,3.4
		c0.7,0.4,2.4,0.6,5.3,0.6c2.3,0,3.7-0.2,4.3-0.7c0.6-0.5,0.9-1.6,0.9-3.3c0-1.3-0.2-2.1-0.7-2.6c-0.5-0.4-1.5-0.7-3.1-0.8l-2.8-0.2
		c-4.2-0.2-6.9-0.8-8.1-1.8c-1.2-0.9-1.8-2.9-1.8-6c0-3.1,0.7-5.2,2.1-6.2c1.4-1,4.2-1.6,8.5-1.5c4,0,6.7,0.5,8.1,1.4
		c1.4,1,2.1,2.8,2.1,5.6L381.8,402z"/>
	<path class="st0" d="M412.4,394.2l-9.9,16.5l0,10.2l-5.1,0l0-10.2l-9.6-16.5l5.9,0l4,7c0.2,0.4,0.6,1.1,1.1,2.2l0.6,1.1l0.5,1.1
		h0.1l0.6-1.1l0.6-1.1c0.5-1,0.9-1.7,1.2-2.2l4.1-7L412.4,394.2z"/>
	<path class="st0" d="M438.8,402l-4.9,0c0-0.2,0-0.4,0-0.5c-0.1-1.5-0.4-2.4-1-2.8c-0.5-0.4-1.8-0.6-3.9-0.6c-2.4,0-4,0.2-4.7,0.7
		c-0.7,0.4-1.1,1.4-1.1,2.8c0,1.7,0.3,2.7,0.9,3c0.6,0.3,2.6,0.6,5.9,0.8c4,0.2,6.5,0.8,7.7,1.7c1.2,0.9,1.7,2.8,1.7,5.7
		c0,3.5-0.7,5.8-2.1,6.9c-1.4,1-4.4,1.6-9,1.5c-4.2,0-7-0.5-8.3-1.5c-1.4-1-2.1-3.1-2.1-6.2l0-1l4.9,0l0,0.6c0,1.9,0.3,3,1,3.4
		c0.7,0.4,2.4,0.6,5.3,0.6c2.3,0,3.7-0.2,4.3-0.7c0.6-0.5,0.9-1.6,0.9-3.3c0-1.3-0.2-2.1-0.7-2.6c-0.5-0.4-1.5-0.7-3.1-0.8l-2.8-0.2
		c-4.2-0.2-6.9-0.8-8.1-1.8c-1.2-0.9-1.8-2.9-1.8-6c0-3.1,0.7-5.2,2.1-6.2c1.4-1,4.2-1.6,8.5-1.5c4,0,6.7,0.5,8.1,1.4
		c1.4,1,2.1,2.8,2.1,5.6V402z"/>
	<path class="st0" d="M458,398.8l0,22.1l-5.1,0l0-22.1l-7.7,0l0-4.5l20.7,0l0,4.5L458,398.8z"/>
	<path class="st0" d="M477.5,398.5l0,6.9l12.5,0l0,3.7l-12.5,0l0,7.5l13.3,0l0,4.3l-18.4,0l0-26.7l18.2,0l0,4.3L477.5,398.5z"/>
	<path class="st0" d="M530.1,394.3l0,26.7l-5.1,0l0-14.5c0-1.2,0-2.5,0.1-3.9l0.1-2l0.1-2h-0.2l-0.6,1.9l-0.6,1.9
		c-0.5,1.7-1,2.9-1.3,3.7l-5.9,15l-4.6,0l-5.9-14.9c-0.3-0.8-0.8-2.1-1.3-3.7l-0.6-1.9l-0.6-1.8h-0.2l0.1,1.9l0.1,2
		c0.1,1.5,0.1,2.8,0.1,3.9l0,14.5l-5.1,0l0-26.7l8.2,0l4.8,12.3c0.3,0.9,0.8,2.1,1.3,3.7l0.6,1.9l0.6,1.8h0.2l0.6-1.8l0.6-1.8
		c0.5-1.5,0.9-2.8,1.3-3.7l4.7-12.4L530.1,394.3z"/>
	<path class="st0" d="M559,402.1l-4.9,0c0-0.2,0-0.4,0-0.5c-0.1-1.5-0.4-2.4-1-2.8c-0.5-0.4-1.8-0.6-3.9-0.6c-2.4,0-4,0.2-4.7,0.7
		c-0.7,0.4-1.1,1.4-1.1,2.8c0,1.7,0.3,2.7,0.9,3c0.6,0.3,2.6,0.6,5.9,0.8c4,0.2,6.5,0.8,7.7,1.7c1.2,0.9,1.7,2.8,1.7,5.7
		c0,3.5-0.7,5.8-2.1,6.9c-1.4,1-4.4,1.6-9,1.5c-4.2,0-7-0.5-8.3-1.5c-1.4-1-2.1-3.1-2.1-6.2l0-1l4.9,0l0,0.6c0,1.9,0.3,3,1,3.4
		c0.7,0.4,2.4,0.6,5.3,0.6c2.3,0,3.7-0.2,4.3-0.7c0.6-0.5,0.9-1.6,0.9-3.3c0-1.3-0.2-2.1-0.7-2.6c-0.5-0.4-1.5-0.7-3.1-0.8l-2.8-0.2
		c-4.2-0.2-6.9-0.8-8.1-1.8c-1.2-0.9-1.8-2.9-1.8-6c0-3.1,0.7-5.2,2.1-6.2c1.4-1,4.2-1.6,8.5-1.5c4,0,6.7,0.5,8.1,1.4
		c1.4,1,2.1,2.8,2.1,5.6L559,402.1z"/>
	<path class="st0" d="M571.7,416.2l0,4.8l-4.5,0l0-4.8L571.7,416.2z"/>
	<path class="st0" d="M596.9,411.5l5.1,0v0.9c0,3.7-0.7,6.1-2,7.2c-1.4,1.1-4.3,1.6-9,1.6c-5.3,0-8.5-0.9-9.7-2.6
		c-1.2-1.7-1.8-6.3-1.8-13.8c0-4.4,0.8-7.3,2.5-8.7c1.6-1.4,5.1-2.1,10.3-2.1c3.8,0,6.3,0.6,7.6,1.7c1.3,1.1,1.9,3.4,1.9,6.8l0,0.6
		l-5.1,0v-0.7c0-1.7-0.3-2.9-1-3.4c-0.7-0.5-2.2-0.7-4.5-0.7c-3.1,0-5,0.4-5.7,1.2c-0.6,0.8-0.9,3-1,6.8c0,5.1,0.3,8.1,0.8,9.1
		c0.6,0.9,2.4,1.4,5.5,1.4c2.5,0,4.1-0.3,4.9-0.8c0.7-0.5,1.1-1.7,1.1-3.4L596.9,411.5z"/>
	<path class="st0" d="M620.6,394.1c4.8,0,8,0.8,9.4,2.4c1.4,1.6,2.1,5.2,2.1,10.8c0,6.1-0.7,10-2.1,11.5c-1.4,1.6-4.8,2.4-10.2,2.4
		c-4.8,0-8-0.8-9.4-2.4c-1.4-1.6-2.1-5-2.1-10.4c0-6.4,0.7-10.3,2.1-12C611.8,394.9,615.2,394.1,620.6,394.1z M620.2,398.5
		c-3.4,0-5.4,0.4-6,1.3c-0.6,0.9-0.9,3.9-0.9,9.1c0,3.8,0.3,6.1,1,6.9c0.7,0.8,2.6,1.2,5.9,1.2c3.1,0,5-0.4,5.6-1.3
		c0.6-0.9,0.9-3.5,0.9-8c0-4.5-0.3-7.1-0.9-7.9C625.5,398.9,623.5,398.5,620.2,398.5z"/>
	<path class="st0" d="M671.1,394.4l0,26.7l-5.1,0l0-14.5c0-1.2,0-2.5,0.1-3.9l0.1-2l0.1-2h-0.2l-0.6,1.9l-0.6,1.9
		c-0.5,1.7-1,2.9-1.3,3.7l-5.9,15l-4.6,0l-5.9-14.9c-0.3-0.8-0.8-2.1-1.3-3.7l-0.6-1.9l-0.6-1.8l-0.2,0l0.1,1.9l0.1,2
		c0.1,1.5,0.1,2.8,0.1,3.9l0,14.5l-5.1,0l0-26.7l8.2,0l4.8,12.3c0.3,0.9,0.8,2.1,1.3,3.7l0.6,1.9l0.6,1.8h0.2l0.6-1.8l0.6-1.8
		c0.5-1.5,0.9-2.8,1.3-3.7l4.7-12.4L671.1,394.4z"/>
</g>
</svg>
